<mxfile host="app.diagrams.net" modified="2024-04-24T14:26:15.160Z" agent="Mozilla/5.0 (Macintosh; Intel Mac OS X 10_15_7) AppleWebKit/605.1.15 (KHTML, like Gecko) Version/16.5 Safari/605.1.15" etag="5Zkb54QH3Jwz22H8a-tl" version="24.3.0" type="github">
  <diagram name="Seite-1" id="B8yfdVEjWAfg335c-Yz9">
    <mxGraphModel dx="1781" dy="647" grid="1" gridSize="10" guides="1" tooltips="1" connect="1" arrows="1" fold="1" page="1" pageScale="1" pageWidth="827" pageHeight="1169" math="0" shadow="0">
      <root>
        <mxCell id="0" />
        <mxCell id="1" parent="0" />
        <mxCell id="9B9HZ1vOfEaPb0FQouvV-14" style="edgeStyle=orthogonalEdgeStyle;rounded=0;orthogonalLoop=1;jettySize=auto;html=1;exitX=0.5;exitY=0;exitDx=0;exitDy=0;entryX=0.5;entryY=1;entryDx=0;entryDy=0;strokeColor=default;align=center;verticalAlign=middle;fontFamily=Helvetica;fontSize=11;fontColor=default;labelBackgroundColor=default;endArrow=none;endFill=0;" edge="1" parent="1" source="ZpUU_O5L9qi3p8TVNbba-1" target="ZpUU_O5L9qi3p8TVNbba-7">
          <mxGeometry relative="1" as="geometry" />
        </mxCell>
        <mxCell id="9B9HZ1vOfEaPb0FQouvV-15" style="edgeStyle=orthogonalEdgeStyle;rounded=0;orthogonalLoop=1;jettySize=auto;html=1;exitX=0;exitY=0.5;exitDx=0;exitDy=0;entryX=0.5;entryY=1;entryDx=0;entryDy=0;strokeColor=default;align=center;verticalAlign=middle;fontFamily=Helvetica;fontSize=11;fontColor=default;labelBackgroundColor=default;endArrow=none;endFill=0;" edge="1" parent="1" source="ZpUU_O5L9qi3p8TVNbba-1" target="ZpUU_O5L9qi3p8TVNbba-14">
          <mxGeometry relative="1" as="geometry" />
        </mxCell>
        <mxCell id="ZpUU_O5L9qi3p8TVNbba-1" value="Pflanze" style="whiteSpace=wrap;html=1;align=center;fillColor=#f8cecc;strokeColor=#b85450;" parent="1" vertex="1">
          <mxGeometry x="130" y="170" width="100" height="40" as="geometry" />
        </mxCell>
        <mxCell id="9B9HZ1vOfEaPb0FQouvV-8" style="edgeStyle=orthogonalEdgeStyle;rounded=0;orthogonalLoop=1;jettySize=auto;html=1;exitX=0.75;exitY=1;exitDx=0;exitDy=0;entryX=0.5;entryY=0;entryDx=0;entryDy=0;strokeColor=default;align=center;verticalAlign=middle;fontFamily=Helvetica;fontSize=11;fontColor=default;labelBackgroundColor=default;endArrow=none;endFill=0;" edge="1" parent="1" source="ZpUU_O5L9qi3p8TVNbba-2" target="9B9HZ1vOfEaPb0FQouvV-3">
          <mxGeometry relative="1" as="geometry" />
        </mxCell>
        <mxCell id="9B9HZ1vOfEaPb0FQouvV-9" style="edgeStyle=orthogonalEdgeStyle;rounded=0;orthogonalLoop=1;jettySize=auto;html=1;exitX=0.25;exitY=1;exitDx=0;exitDy=0;entryX=0.5;entryY=0;entryDx=0;entryDy=0;strokeColor=default;align=center;verticalAlign=middle;fontFamily=Helvetica;fontSize=11;fontColor=default;labelBackgroundColor=default;endArrow=none;endFill=0;" edge="1" parent="1" source="ZpUU_O5L9qi3p8TVNbba-2" target="9B9HZ1vOfEaPb0FQouvV-4">
          <mxGeometry relative="1" as="geometry" />
        </mxCell>
        <mxCell id="9B9HZ1vOfEaPb0FQouvV-10" style="edgeStyle=orthogonalEdgeStyle;rounded=0;orthogonalLoop=1;jettySize=auto;html=1;exitX=0.5;exitY=0;exitDx=0;exitDy=0;entryX=0.5;entryY=1;entryDx=0;entryDy=0;strokeColor=default;align=center;verticalAlign=middle;fontFamily=Helvetica;fontSize=11;fontColor=default;labelBackgroundColor=default;endArrow=none;endFill=0;" edge="1" parent="1" source="ZpUU_O5L9qi3p8TVNbba-2" target="9B9HZ1vOfEaPb0FQouvV-2">
          <mxGeometry relative="1" as="geometry" />
        </mxCell>
        <mxCell id="ZpUU_O5L9qi3p8TVNbba-2" value="Pflanzengattung" style="whiteSpace=wrap;html=1;align=center;fillColor=#f8cecc;strokeColor=#b85450;" parent="1" vertex="1">
          <mxGeometry y="350" width="100" height="40" as="geometry" />
        </mxCell>
        <mxCell id="9B9HZ1vOfEaPb0FQouvV-11" style="edgeStyle=orthogonalEdgeStyle;rounded=0;orthogonalLoop=1;jettySize=auto;html=1;exitX=0.25;exitY=1;exitDx=0;exitDy=0;entryX=0.5;entryY=0;entryDx=0;entryDy=0;strokeColor=default;align=center;verticalAlign=middle;fontFamily=Helvetica;fontSize=11;fontColor=default;labelBackgroundColor=default;endArrow=none;endFill=0;" edge="1" parent="1" source="ZpUU_O5L9qi3p8TVNbba-3" target="9B9HZ1vOfEaPb0FQouvV-1">
          <mxGeometry relative="1" as="geometry" />
        </mxCell>
        <mxCell id="9B9HZ1vOfEaPb0FQouvV-12" style="edgeStyle=orthogonalEdgeStyle;rounded=0;orthogonalLoop=1;jettySize=auto;html=1;exitX=0.75;exitY=1;exitDx=0;exitDy=0;strokeColor=default;align=center;verticalAlign=middle;fontFamily=Helvetica;fontSize=11;fontColor=default;labelBackgroundColor=default;endArrow=none;endFill=0;" edge="1" parent="1" source="ZpUU_O5L9qi3p8TVNbba-3" target="ZpUU_O5L9qi3p8TVNbba-16">
          <mxGeometry relative="1" as="geometry" />
        </mxCell>
        <mxCell id="9B9HZ1vOfEaPb0FQouvV-13" style="edgeStyle=orthogonalEdgeStyle;rounded=0;orthogonalLoop=1;jettySize=auto;html=1;exitX=0.5;exitY=0;exitDx=0;exitDy=0;entryX=0.5;entryY=1;entryDx=0;entryDy=0;strokeColor=default;align=center;verticalAlign=middle;fontFamily=Helvetica;fontSize=11;fontColor=default;labelBackgroundColor=default;endArrow=none;endFill=0;" edge="1" parent="1" source="ZpUU_O5L9qi3p8TVNbba-3" target="ZpUU_O5L9qi3p8TVNbba-8">
          <mxGeometry relative="1" as="geometry" />
        </mxCell>
        <mxCell id="ZpUU_O5L9qi3p8TVNbba-3" value="Düngersorte" style="whiteSpace=wrap;html=1;align=center;fillColor=#f8cecc;strokeColor=#b85450;" parent="1" vertex="1">
          <mxGeometry x="590" y="350" width="100" height="40" as="geometry" />
        </mxCell>
        <mxCell id="9B9HZ1vOfEaPb0FQouvV-17" style="edgeStyle=orthogonalEdgeStyle;rounded=0;orthogonalLoop=1;jettySize=auto;html=1;exitX=0.5;exitY=0;exitDx=0;exitDy=0;entryX=0.5;entryY=1;entryDx=0;entryDy=0;strokeColor=default;align=center;verticalAlign=middle;fontFamily=Helvetica;fontSize=11;fontColor=default;labelBackgroundColor=default;endArrow=none;endFill=0;" edge="1" parent="1" source="ZpUU_O5L9qi3p8TVNbba-4" target="ZpUU_O5L9qi3p8TVNbba-13">
          <mxGeometry relative="1" as="geometry" />
        </mxCell>
        <mxCell id="ZpUU_O5L9qi3p8TVNbba-4" value="Gewächshaus" style="whiteSpace=wrap;html=1;align=center;fillColor=#f8cecc;strokeColor=#b85450;" parent="1" vertex="1">
          <mxGeometry x="290" y="350" width="100" height="40" as="geometry" />
        </mxCell>
        <mxCell id="ZpUU_O5L9qi3p8TVNbba-5" value="Botaniker" style="whiteSpace=wrap;html=1;align=center;fillColor=#f8cecc;strokeColor=#b85450;" parent="1" vertex="1">
          <mxGeometry x="470" y="160" width="100" height="40" as="geometry" />
        </mxCell>
        <mxCell id="9B9HZ1vOfEaPb0FQouvV-16" style="edgeStyle=orthogonalEdgeStyle;rounded=0;orthogonalLoop=1;jettySize=auto;html=1;exitX=0.5;exitY=0;exitDx=0;exitDy=0;entryX=0.5;entryY=1;entryDx=0;entryDy=0;strokeColor=default;align=center;verticalAlign=middle;fontFamily=Helvetica;fontSize=11;fontColor=default;labelBackgroundColor=default;endArrow=none;endFill=0;" edge="1" parent="1" source="ZpUU_O5L9qi3p8TVNbba-6" target="ZpUU_O5L9qi3p8TVNbba-4">
          <mxGeometry relative="1" as="geometry" />
        </mxCell>
        <mxCell id="ZpUU_O5L9qi3p8TVNbba-6" value="Gebäudenummer" style="ellipse;whiteSpace=wrap;html=1;align=center;fontStyle=4;fillColor=#dae8fc;strokeColor=#6c8ebf;" parent="1" vertex="1">
          <mxGeometry x="270" y="430" width="100" height="40" as="geometry" />
        </mxCell>
        <mxCell id="ZpUU_O5L9qi3p8TVNbba-7" value="Nummer" style="ellipse;whiteSpace=wrap;html=1;align=center;fontStyle=4;fillColor=#dae8fc;strokeColor=#6c8ebf;" parent="1" vertex="1">
          <mxGeometry x="90" y="90" width="100" height="40" as="geometry" />
        </mxCell>
        <mxCell id="ZpUU_O5L9qi3p8TVNbba-8" value="ArtNummer" style="ellipse;whiteSpace=wrap;html=1;align=center;fontStyle=4;fillColor=#dae8fc;strokeColor=#6c8ebf;" parent="1" vertex="1">
          <mxGeometry x="590" y="250" width="100" height="40" as="geometry" />
        </mxCell>
        <mxCell id="ZpUU_O5L9qi3p8TVNbba-10" value="ID" style="ellipse;whiteSpace=wrap;html=1;align=center;fontStyle=4;fillColor=#dae8fc;strokeColor=#6c8ebf;" parent="1" vertex="1">
          <mxGeometry x="470" y="100" width="100" height="40" as="geometry" />
        </mxCell>
        <mxCell id="ZpUU_O5L9qi3p8TVNbba-12" value="Adresse" style="ellipse;whiteSpace=wrap;html=1;align=center;fillColor=#dae8fc;strokeColor=#6c8ebf;" parent="1" vertex="1">
          <mxGeometry x="364" y="160" width="100" height="40" as="geometry" />
        </mxCell>
        <mxCell id="ZpUU_O5L9qi3p8TVNbba-13" value="Bezeichnung" style="ellipse;whiteSpace=wrap;html=1;align=center;fillColor=#dae8fc;strokeColor=#6c8ebf;" parent="1" vertex="1">
          <mxGeometry x="290" y="290" width="100" height="40" as="geometry" />
        </mxCell>
        <mxCell id="ZpUU_O5L9qi3p8TVNbba-14" value="Name" style="ellipse;whiteSpace=wrap;html=1;align=center;fillColor=#dae8fc;strokeColor=#6c8ebf;" parent="1" vertex="1">
          <mxGeometry x="10" y="150" width="100" height="40" as="geometry" />
        </mxCell>
        <mxCell id="ZpUU_O5L9qi3p8TVNbba-16" value="Bezeichnung" style="ellipse;whiteSpace=wrap;html=1;align=center;fillColor=#dae8fc;strokeColor=#6c8ebf;" parent="1" vertex="1">
          <mxGeometry x="650" y="430" width="100" height="40" as="geometry" />
        </mxCell>
        <mxCell id="9B9HZ1vOfEaPb0FQouvV-1" value="Beschreibung" style="ellipse;whiteSpace=wrap;html=1;align=center;fillColor=#dae8fc;strokeColor=#6c8ebf;" vertex="1" parent="1">
          <mxGeometry x="540" y="430" width="100" height="40" as="geometry" />
        </mxCell>
        <mxCell id="9B9HZ1vOfEaPb0FQouvV-2" value="ArtNummer" style="ellipse;whiteSpace=wrap;html=1;align=center;fontStyle=4;fillColor=#dae8fc;strokeColor=#6c8ebf;" vertex="1" parent="1">
          <mxGeometry x="-10" y="280" width="100" height="40" as="geometry" />
        </mxCell>
        <mxCell id="9B9HZ1vOfEaPb0FQouvV-3" value="Bezeichnung" style="ellipse;whiteSpace=wrap;html=1;align=center;fillColor=#dae8fc;strokeColor=#6c8ebf;" vertex="1" parent="1">
          <mxGeometry x="40" y="490" width="100" height="40" as="geometry" />
        </mxCell>
        <mxCell id="9B9HZ1vOfEaPb0FQouvV-4" value="Beschreibung" style="ellipse;whiteSpace=wrap;html=1;align=center;fillColor=#dae8fc;strokeColor=#6c8ebf;" vertex="1" parent="1">
          <mxGeometry x="-70" y="490" width="100" height="40" as="geometry" />
        </mxCell>
        <mxCell id="9B9HZ1vOfEaPb0FQouvV-18" value="Name" style="ellipse;whiteSpace=wrap;html=1;align=center;fillColor=#dae8fc;strokeColor=#6c8ebf;" vertex="1" parent="1">
          <mxGeometry x="464" y="220" width="100" height="40" as="geometry" />
        </mxCell>
      </root>
    </mxGraphModel>
  </diagram>
</mxfile>
